<svg xmlns="http://www.w3.org/2000/svg" width="677.5" height="503.58905" viewBox="0 0 677.5 503.58905" xmlns:xlink="http://www.w3.org/1999/xlink">

<path d="M654.81,26.84947H250v2h269.82001c19.16998,0,37.52002,3.46002,54.47998,9.79999h.01001c2.33002,.87,4.62,1.78998,6.89001,2.77002,5.23999,2.23999,10.32001,4.76996,15.23999,7.56,3.06,1.72998,6.06,3.57001,8.97998,5.5,6.23999,4.10999,12.16003,8.65997,17.72003,13.60999l.01001,.01001c.25,.21002,.48999,.41998,.72998,.64996,31.69,28.49005,51.62,69.81006,51.62,115.78003v112.63c0,.23999,0,.47998-.01001,.71997-.27997,8.26001-5.39996,15.15002-12.20001,13.42004-11.58997-2.96002-23.35999-5.13-35.32001-5.13H71.19c-23.15997,0-46.70001,2.20996-68.21002,10.81-.71997,.28998-1.38995,.10999-2.04999-.10004-.31-.09998-.62-.19995-.92999-.31995v2.10999c2.26001,.76001,4.66998,1.17999,7.19,1.17999H654.81c12.25,0,22.27002-9.77002,22.66998-21.91998,.02002-.26001,.02002-.51001,.02002-.77002V49.53947c0-12.51001-10.17999-22.69-22.69-22.69Z" fill="#4c4c4c14"/>

<g><polygon points="261.1483 480.08779 245.96467 482.37354 229.91947 424.89638 252.32903 421.52214 261.1483 480.08779" fill="#ffb6b6"/>

<path d="M264.06881,495.84658l-46.69146,7.03187-.08894-.59042c-1.51128-10.0367,5.39935-19.39843,15.43586-20.91092l.00112-.00017,7.55402-7.75508,16.88758,4.0742,4.07587-.6139,2.82594,18.76442Z" fill="#000"/></g>
<g><polygon points="387.37228 467.83751 373.60654 474.63984 340.81533 424.78195 361.13201 414.74173 387.37228 467.83751" fill="#ffb6b6"/>

<path d="M394.9544,481.95772l-42.3304,20.92072-.26457-.53527c-4.49681-9.09934-.76636-20.12125,8.33243-24.61916l.00102-.0005,4.83268-9.68761,17.32607-1.26368,3.69515-1.82631,8.40761,17.0118Z" fill="#000"/></g>

<path d="M419.84648,310.31851l.25271-94.04862,22.39906-5.92949-6.50761,99.58661c1.84587,1.46847,3.3047,3.46626,4.10171,5.8725,2.18331,6.59096-1.38984,13.70392-7.98091,15.88716-6.59096,2.18331-13.70383-1.38986-15.88714-7.98082-1.63365-4.93197-.04306-10.15501,3.62217-13.38733Z" fill="#ffb6b6"/>

<path d="M276.89536,285.54074l4.11477-93.95891,22.62367-5.00463-10.59182,99.23535c1.78401,1.54304,3.15956,3.59905,3.85709,6.03599,1.9108,6.67506-1.95144,13.63528-8.62661,15.54601-6.67506,1.9108-13.63519-1.95146-15.54599-8.62652-1.42973-4.9949,.37401-10.14821,4.16889-13.22729Z" fill="#ffb6b6"/>

<!-- Leg -->
<path d="M339.38635,319.23486l-58.33201,19.14138-34.16895,11.20804c14.33879,25.12109,13.07399,102.41718,11.95943,108.8352h-29.84482c-.28804-5.76684-21.42425-81.19072-27.67948-115.3534-8.13994-44.45657,30.05515-55.72725,30.05515-55.72725l55.16997-21.96531,34.58846-8.71598,27.33141-6.88764c1.23976,2.34179,2.31676,4.62725,3.24971,6.86257,.00627,.00627,.00627,.0188,.01254,.02507,16.54284,39.61641-12.34141,62.57732-12.34141,62.57732Z" fill="#000"/>

<!-- Leg -->
<path d="M415.46343,283.61951c-.83906,12.86735-6.19889,21.57707-6.19889,21.57707l-76.63433,60.03516c15.38448,13.08653,52.48499,77.62827,55.75973,86.18775l-33.38995,5c-3.66299-6.7812-61.70446-71.99001-67.43374-81.80175-7.42612-12.71712-8.47177-25.19626-6.51193-36.2415,4.05116-22.8607,21.00102-39.59769,21.00102-39.59769l42.03964-38.58329,7.56385-3.53772,.05637-.02507,42.43412-19.84266c7.32591,6.64974,12.3226,13.3683,15.64119,19.86773,3.66296,7.17564,5.27216,14.08208,5.67291,20.31854,.15027,2.31672,.13773,4.53331,0,6.64343Z" fill="#000"/>

<path d="M377.8945,83.84045l-41.95197-1.2523-12.52298,15.02757c-12.04251,1.40169-22.62991,6.07044-31.30744,15.02757,0,0,6.89308,18.44463,5.00919,57.60569-.98215,20.4163,3.6584,58.01871,3.13074,72.63327-.46997,13.01693,1.49106,18.82312,1.87845,18.78447,1.65658-.1653,9.39223-4.38304,25.04595,.62615,15.65372,5.00919,84.16385-5.69976,84.16385-5.69976l-4.64295-29.99073,5.78918-18.83479,2.35075-100.1335c-13.14913-5.63534-20.03676-7.51379-32.55974-7.51379l-4.38304-16.27987Z" fill="#f1faee"/>

<path d="M401.87058,115.37854l12.34056-7.74443s22.54136-3.75689,20.66291,39.44738c0,0,12.35091,31.12429,11.6004,58.26621-.04652,1.68233-1.72969,4.17383-.29665,4.99274,3.04388,1.73944,1.59851,3.38806-.65924,4.99127l-28.30743,6.31439c-2.52454-2.37726-3.80914-4.5993-1.77393-6.40594-2.29211-.8299-2.87329-1.9776-.99213-3.58252-1.04913-.19696-1.53033-.82959-.68646-2.47882l-13.94889-29.53759,2.06087-64.26269Z" fill="#f1faee"/>

<path d="M306.31177,118.24338l-13.33997-5.85754s-22.84839-.42185-14.67528,42.04388c0,0-6.8761,29.22499-3.60811,55.03169,.07235,.57133,.6009,1.26929,.23212,1.70862-1.24396,1.48193-1.3938,2.94458,.75018,4.37518,.74371,.49622,1.00317,1.83759,.56702,2.60693-1.40442,2.47729-.4126,4.091,1.50421,5.35065l33.35575,11.56322,8.83592-69.80326-13.62184-47.01937Z" fill="#f1faee"/>

<circle cx="352.69578" cy="43.87179" r="35.48022" fill="#ffb6b6"/>

<path d="M385.98823,67.56476c-.42932,.80487-1.68294,1.89079-3.37366,3.09479-1.92269,1.36823-4.4045,2.88327-6.86768,4.33076,0,0-8.92416-.96614-5.41189-5.69275,.39347-.52434,.76166-1.10744,1.09664-1.72046,1.22609-2.26566,1.82355-4.92245,.27012-6.81318-1.15042-1.39586-3.32876-1.80959-4.90988-.92809-1.57842,.87193-.99605,.86651-1.6034,.6991-1.48025-1.70463-3.87674-.91302-3.87674-.91302,0,0,1.85762-4.21802,3.32717-6.01201,1.4792-1.79133,2.99924-3.76849,3.1493-6.08174,.15512-2.2186-.97155-4.30288-2.05826-6.23098-1.1775-2.08798-2.34801-4.16364-3.52551-6.25162-.39805-.70098-.79339-1.41154-1.22835-2.09161-4.21633-6.68059-17.91427,.11375-25.81143-.17513-7.8945-.29853-10.55578-9.91131-15.25212-3.56095-1.13623-5.02247-1.98867-8.92943-3.11541-13.23362-1.02868-3.94516,3.39173-7.18707,6.75954-4.87922,.02629,.01763,.04287,.03258,.06916,.05021,.47256-.58548,.82081-1.24669,1.049-1.96176,.15748-.496,.40603-.94614,.70878-1.32949,1.12835,.79858,2.25938,1.58745,3.37813,2.38338-.2077-1.35387-.65675-2.66017-1.29989-3.86436,.98585-.34029,2.09445-.33551,3.13697,.09708l1.87397,.76548c.56536-.50805,.97841-1.14108,1.25484-1.84285,.74281-1.94239,2.65629-3.12652,4.72823-2.92883,3.34512,.3204-1.07097-.41362,2.26396-1.18518,5.10857-1.18512,10.79323-2.3152,15.33719,.3169,6.8006,3.92833,11.943,6.81385,23.943,7.81385,6,4,8.58207,13.62392,10.42403,18.45713,1.46573,3.82706,2.55994,11.41049,1.00335,15.21354-3.92544,9.61255-.58519,15.29439-5.43914,24.47462Z" fill="#000"/>

<path d="M137.95364,502.39905c0,.66003,.53003,1.19,1.19006,1.19h383.28998c.65997,0,1.19-.52997,1.19-1.19,0-.65997-.53003-1.19-1.19-1.19H139.14371c-.66003,0-1.19006,.53003-1.19006,1.19Z" fill="#a1a1a1"/>

</svg>